<svg id="Logo" xmlns="http://www.w3.org/2000/svg" width="0.2in" height="0.2in" viewBox="0 0 16 16"><path d="M11,15.5a3.6,3.6,0,0,0,3.4-3.8V8.8a.5.5,0,0,0-.4-.5H11.4A3.6,3.6,0,0,0,8,12.1,3.6,3.6,0,0,0,4.6,8.3H2a.5.5,0,0,0-.4.5v2.9A3.6,3.6,0,0,0,5,15.5" fill="none" stroke="#077" stroke-linecap="round" stroke-linejoin="round" stroke-width="0.8"/><path d="M10,4a3.3,3.3,0,0,1,2,3.1" fill="none" stroke="#077" stroke-linecap="round" stroke-linejoin="round" stroke-width="0.8"/><path d="M4,7.1A3.8,3.8,0,0,1,6,3.9" fill="none" stroke="#077" stroke-linecap="round" stroke-linejoin="round" stroke-width="0.8"/><circle cx="8" cy="3.2" r="1" fill="none" stroke="#ff6b6b" stroke-linecap="round" stroke-linejoin="round" stroke-width="0.8"/><path d="M8,2.3A1.9,1.9,0,0,1,9,.5" fill="none" stroke="#ff6b6b" stroke-linecap="round" stroke-miterlimit="10" stroke-width="0.8"/></svg>