<svg id="Logo" xmlns="http://www.w3.org/2000/svg" width="3.6in" height="3.6in" viewBox="0 0 256 256"><path d="M175.8,247.5c29.6,0,53.7-27,53.7-60.4V140.2c0-3.8-2.8-6.9-6.2-6.9H181.6c-29.6,0-53.6,27-53.6,60.4,0-33.4-24-60.4-53.6-60.4H32.7c-3.4,0-6.2,3.1-6.2,6.9v46.9c0,33.4,24.1,60.4,53.7,60.4" fill="none" stroke="#077" stroke-linecap="round" stroke-linejoin="round" stroke-width="12.73"/><path d="M159.3,63.7a55.5,55.5,0,0,1,31.8,50.2" fill="none" stroke="#077" stroke-linecap="round" stroke-linejoin="round" stroke-width="12.73"/><path d="M64.9,113.9a55.4,55.4,0,0,1,32-50.3" fill="none" stroke="#077" stroke-linecap="round" stroke-linejoin="round" stroke-width="12.73"/><circle cx="128" cy="52.3" r="15.5" fill="none" stroke="#ff6b6b" stroke-linecap="round" stroke-linejoin="round" stroke-width="12.73"/><path d="M128,36.7c0-21.6,15.5-28.2,15.5-28.2" fill="none" stroke="#ff6b6b" stroke-linecap="round" stroke-miterlimit="10" stroke-width="12.73"/></svg>