<svg xmlns="http://www.w3.org/2000/svg" width="38.4" height="38.4" viewBox="0 0 32 32"><path fill="none" stroke="#077" stroke-linecap="round" stroke-linejoin="round" stroke-width="1.59" d="M22 30.9c3.7 0 6.7-3.3 6.7-7.5v-5.9a.9.9 0 0 0-.8-.8h-5.2C19 16.7 16 20 16 24.2c0-4.2-3-7.5-6.7-7.5H4.1a.9.9 0 0 0-.8.8v5.9c0 4.2 3 7.5 6.7 7.5M19.9 8a6.8 6.8 0 0 1 4 6.2m-15.8 0a7 7 0 0 1 4-6.3"/><circle cx="16" cy="6.5" r="1.9" fill="none" stroke="#ff6b6b" stroke-linecap="round" stroke-linejoin="round" stroke-width="1.59"/><path fill="none" stroke="#ff6b6b" stroke-linecap="round" stroke-miterlimit="10" stroke-width="1.59" d="M16 4.6a3.6 3.6 0 0 1 1.9-3.5"/></svg>