<svg xmlns="http://www.w3.org/2000/svg" width="86.4" height="86.4" viewBox="0 0 64 64"><path fill="none" stroke="#077" stroke-linecap="round" stroke-linejoin="round" stroke-width="3.2" d="M44 62.1c7.5 0 13.5-6.8 13.5-15.2V35.1a1.7 1.7 0 0 0-1.5-1.8H45.5C38 33.3 32 40.1 32 48.5c0-8.4-6-15.2-13.5-15.2H8a1.7 1.7 0 0 0-1.5 1.8v11.8c0 8.4 6 15.2 13.5 15.2m19.9-46.3a14.2 14.2 0 0 1 8 12.7m-31.8 0a14 14 0 0 1 8.1-12.7"/><circle cx="32" cy="12.9" r="3.9" fill="none" stroke="#ff6b6b" stroke-linecap="round" stroke-linejoin="round" stroke-width="3.2"/><path fill="none" stroke="#ff6b6b" stroke-linecap="round" stroke-miterlimit="10" stroke-width="3.2" d="M32 9c0-5.4 3.9-7.1 3.9-7.1"/></svg>