<svg id="Logo" xmlns="http://www.w3.org/2000/svg" width="16in" height="3.6in" viewBox="0 0 1152 256"><path d="M260.7,180.8V99c0-4.4,2.7-6.9,7-6.9h5.8c4.3,0,6.8,2.5,6.8,6.9v11.8c4-13.7,16.2-20.8,30.1-20.8,9.4,0,22.9,3.1,30.2,19.7C348.6,93.3,361.5,90,373,90c22.6,0,36.6,13.8,36.6,43.7v47.1c0,4.4-2.5,6.8-6.9,6.8H397c-4.4,0-7.1-2.4-7.1-6.8V133.7c0-19.5-8.7-26.5-18.8-26.5s-25.2,5.5-26.2,33.5v40.1c0,4.4-2.4,6.8-6.8,6.8h-5.7c-4.4,0-7.1-2.4-7.1-6.8V133.7c0-19.5-8.8-26.5-18.9-26.5s-26.1,6.7-26.1,35.6v38c0,4.4-2.5,6.8-6.8,6.8h-5.8C263.4,187.6,260.7,185.2,260.7,180.8Z" fill="#077"/><path d="M428,140.2c0-27.9,21.8-50.2,51.5-50.2,24,0,46,14.3,48.6,44.8.6,4.6-2.1,7.1-6.7,7.1H447.5c-.6,17.7,14.1,30.7,34.9,30.7a44.9,44.9,0,0,0,25.9-8c3.6-2.3,6.7-2.1,9.7.9l1.4,1.5c3,3.3,3,7.3-1.4,10.9-11,9-23.8,11.8-35.8,11.8C448.6,189.7,428,167.4,428,140.2Zm80.7-12.8c-5-17-18.3-20.6-28.8-20.6s-24.8,4.4-30.7,20.6Z" fill="#077"/><path d="M547,180.8V99c0-4.4,2.7-6.9,7-6.9h5.8c4.3,0,6.8,2.5,6.8,6.9v14.5C569.9,98.2,580.7,90,592.2,90l4.2.2c4,.6,4.5,3.8,4.5,7.7v5.5c0,4.7-1.9,6.7-5.1,5.9a22.4,22.4,0,0,0-5.2-.6c-6.8,0-24,3.4-24,42.5v29.6c0,4.4-2.5,6.8-6.8,6.8H554C549.7,187.6,547,185.2,547,180.8Z" fill="#077"/><path d="M619.4,180.8V99c0-4.4,2.7-6.9,7.1-6.9h5.7c4.4,0,6.9,2.5,6.9,6.9v14.5C642.3,98.2,653.2,90,664.6,90l4.2.2c4,.6,4.6,3.8,4.6,7.7v5.5c0,4.7-1.9,6.7-5.2,5.9a22.2,22.2,0,0,0-5.1-.6c-6.9,0-24,3.4-24,42.5v29.6c0,4.4-2.5,6.8-6.9,6.8h-5.7C622.1,187.6,619.4,185.2,619.4,180.8Z" fill="#077"/><path d="M689,61.8a12.9,12.9,0,0,1,13.1-13.3,13.2,13.2,0,0,1,13.6,13.3c0,7.3-5.9,13-13.6,13A12.8,12.8,0,0,1,689,61.8Zm3.4,119V99c0-4.4,2.7-6.9,7.1-6.9h5.7c4.4,0,6.9,2.5,6.9,6.9v81.8c0,4.4-2.5,6.8-6.9,6.8h-5.7C695.1,187.6,692.4,185.2,692.4,180.8Z" fill="#077"/><path d="M739.5,180.8V99c0-4.4,2.7-6.9,7.1-6.9h5.7c4.4,0,6.8,2.5,6.8,6.9v11.8c4-13.7,16.2-20.8,30.2-20.8,9.3,0,22.8,3.1,30.1,19.7,8-16.4,20.9-19.7,32.4-19.7,22.7,0,36.6,13.8,36.6,43.7v47.1c0,4.4-2.5,6.8-6.9,6.8h-5.7c-4.4,0-7.1-2.4-7.1-6.8V133.7c0-19.5-8.7-26.5-18.8-26.5s-25.2,5.5-26.1,33.5v40.1c0,4.4-2.5,6.8-6.9,6.8h-5.7c-4.4,0-7.1-2.4-7.1-6.8V133.7c0-19.5-8.7-26.5-18.8-26.5s-26.2,6.7-26.2,35.6v38c0,4.4-2.4,6.8-6.8,6.8h-5.7C742.2,187.6,739.5,185.2,739.5,180.8Z" fill="#077"/><path d="M911.1,61.8a12.9,12.9,0,0,1,13.1-13.3,13.2,13.2,0,0,1,13.5,13.3c0,7.3-5.9,13-13.5,13A12.8,12.8,0,0,1,911.1,61.8Zm3.4,119V99c0-4.4,2.7-6.9,7-6.9h5.8c4.3,0,6.8,2.5,6.8,6.9v81.8c0,4.4-2.5,6.8-6.8,6.8h-5.8C917.2,187.6,914.5,185.2,914.5,180.8Z" fill="#077"/><path d="M961.6,180.8V99c0-4.4,2.6-6.9,7-6.9h5.7c4.4,0,6.9,2.5,6.9,6.9v11.8C985.4,97.5,997.6,90,1013,90c21.2,0,36.6,13.8,36.6,43.7v47.1c0,4.4-2.6,6.8-7,6.8h-5.7c-4.4,0-6.9-2.4-6.9-6.8V133.9c0-19.7-9-26.7-19.1-26.7s-29.7,6.7-29.7,35.6v38c0,4.4-2.5,6.8-6.9,6.8h-5.7C964.2,187.6,961.6,185.2,961.6,180.8Z" fill="#077"/><path d="M1075.9,157.3V107.4h-11.6c-2.5,0-3.8-1.5-3.8-4V95.9a3.4,3.4,0,0,1,3.8-3.8h12l3.4-21.9c.6-3.6,2.7-5.5,6.1-5.5h4c3.7,0,5.8,2.3,5.8,5.9V92.1h26.1a3.4,3.4,0,0,1,3.8,3.8v7.5c0,2.5-1.3,4-3.8,4h-26.1v51.1c0,10.3,4.9,14.3,11,14.3s11.3-3.5,11.3-10.3a14.5,14.5,0,0,0-.4-3.7c-.4-2.6.7-4.3,3.4-4.3h8.8c2.3,0,4,.9,4.4,3.4a37.8,37.8,0,0,1,.7,7c0,14.3-10.3,24.8-28.6,24.8C1091,189.7,1075.9,181.9,1075.9,157.3Z" fill="#077"/><path d="M163.5,247.3c29.6,0,53.5-27,53.5-60.3V140.2c0-3.8-2.7-6.9-6.1-6.9H169.3c-29.6,0-53.5,27-53.5,60.2,0-33.2-24-60.2-53.6-60.2H20.6c-3.4,0-6.1,3.1-6.1,6.9V187c0,33.3,24,60.3,53.5,60.3" fill="none" stroke="#077" stroke-linecap="round" stroke-linejoin="round" stroke-width="12.71"/><path d="M147,63.8a55.4,55.4,0,0,1,31.8,50.1" fill="none" stroke="#077" stroke-linecap="round" stroke-linejoin="round" stroke-width="12.71"/><path d="M52.8,113.9A55.3,55.3,0,0,1,84.7,63.7" fill="none" stroke="#077" stroke-linecap="round" stroke-linejoin="round" stroke-width="12.71"/><circle cx="115.8" cy="52.4" r="15.5" fill="none" stroke="#ff6b6b" stroke-linecap="round" stroke-linejoin="round" stroke-width="12.71"/><path d="M115.8,36.9c0-21.6,15.5-28.2,15.5-28.2" fill="none" stroke="#ff6b6b" stroke-linecap="round" stroke-miterlimit="10" stroke-width="12.71"/></svg>