<?xml version="1.0" encoding="utf-8"?>
<!-- Generator: Adobe Illustrator 25.0.1, SVG Export Plug-In . SVG Version: 6.00 Build 0)  -->
<svg version="1.1" id="Layer_1" xmlns="http://www.w3.org/2000/svg" xmlns:xlink="http://www.w3.org/1999/xlink" x="0px" y="0px"
	 viewBox="0 0 64 128" style="enable-background:new 0 0 64 128;" xml:space="preserve">
<style type="text/css">
	.st0{fill:#007777;}
</style>
<g>
	<path class="st0" d="M7.3,111.9l40.6-40.6c1.3-1.3,3.4-1.3,4.7,0l4.1,4.1c1.3,1.3,1.3,3.4,0,4.7l-40.6,40.6c-1.3,1.3-3.4,1.3-4.7,0
		l-4.1-4.1C6,115.2,6,113.2,7.3,111.9z"/>
	<path class="st0" d="M7.3,75.4l4.1-4.1c1.3-1.3,3.4-1.3,4.7,0l40.6,40.6c1.3,1.3,1.3,3.4,0,4.7l-4.1,4.1c-1.3,1.3-3.4,1.3-4.7,0
		L7.3,80C6,78.8,6,76.7,7.3,75.4z"/>
</g>
<g>
	<path class="st0" d="M3.3,0h57.4C62.5,0,64,1.5,64,3.3v5.8c0,1.8-1.5,3.3-3.3,3.3H3.3C1.5,12.4,0,10.9,0,9.1V3.3C0,1.5,1.5,0,3.3,0
		z"/>
	<path class="st0" d="M3.3,25.8h57.4c1.8,0,3.3,1.5,3.3,3.3v5.8c0,1.8-1.5,3.3-3.3,3.3H3.3c-1.8,0-3.3-1.5-3.3-3.3v-5.8
		C0,27.3,1.5,25.8,3.3,25.8z"/>
	<path class="st0" d="M3.3,51.6h57.4c1.8,0,3.3,1.5,3.3,3.3v5.8c0,1.8-1.5,3.3-3.3,3.3H3.3C1.5,64,0,62.5,0,60.7v-5.8
		C0,53.1,1.5,51.6,3.3,51.6z"/>
</g>
</svg>
